<?xml version="1.0" encoding="UTF-8"?>
<svg viewBox="0 0 50 56" version="1.1" xmlns="http://www.w3.org/2000/svg" xmlns:xlink="http://www.w3.org/1999/xlink">
    <!-- Generator: Sketch 41.2 (35397) - http://www.bohemiancoding.com/sketch -->
    <defs></defs>
    <g id="Page-1" stroke="none" stroke-width="1" fill="none" fill-rule="evenodd">
        <g id="58438" fill="#FFFFFF">
            <path d="M21.7953507,49.8001631 C21.9784666,50.6368679 21.2852365,51.499429 20.2469005,51.7266721 C19.2085644,51.9539152 18.2184339,51.4597879 18.0352365,50.6230832 C17.8520392,49.7863785 18.5453507,48.9238173 19.5836868,48.6965742 C20.6220228,48.469168 21.6122349,48.9633768 21.7953507,49.8001631 Z M28.1823817,49.8001631 C27.9991843,50.6371941 28.6924144,51.5 29.7307504,51.7272431 C30.7690049,51.9544861 31.7592985,51.4601142 31.9424959,50.6230832 C32.1256117,49.7860522 31.4323817,48.9232463 30.3941272,48.6960033 C29.3557912,48.4687602 28.3655791,48.9631321 28.1823817,49.8001631 Z M48.6619902,17.0581566 C47.4751223,19.4477162 45.722186,21.1757749 43.4535073,22.1950245 C42.2372757,22.740783 41.0679445,22.9840131 40.1570147,23.0872757 C40.2969821,24.7047308 40.3082382,26.6331974 40.1778956,28.4470636 C40.0215334,30.627814 39.5885808,33.696248 38.4163948,35.9328711 C36.3474715,39.8817292 35.6769168,42.5309135 35.4788744,44.0579935 C35.3417618,45.1162316 35.4162316,45.7314029 35.4506525,45.9305873 C35.9438825,46.7901305 37.6002447,50.1261827 35.7593801,53.3966558 C34.96354,54.8104405 34.0865416,55.7517945 32.3923328,55.7517945 C31.8409462,55.7517945 31.2551387,55.6575856 30.512969,55.5379282 C29.2820555,55.3392333 27.595677,55.0677814 25.0211256,55.0677814 C22.4459217,55.0677814 20.7595432,55.3398042 19.5287113,55.5379282 C18.7865416,55.6575856 18.2007341,55.7517945 17.6493475,55.7517945 C15.9551387,55.7517945 15.0780587,54.8104405 14.2823002,53.3966558 C12.4503263,50.1424959 14.0814029,46.8239804 14.5836868,45.9441272 C14.5836868,45.941925 14.5842577,45.9390701 14.5848287,45.9362153 L14.5769168,45.9311582 C14.5803426,45.9265905 14.5842577,45.9203915 14.5881729,45.9147635 C14.6931485,45.2719413 14.9267537,42.2339315 11.624633,35.9333605 C10.451876,33.6955954 10.0195759,30.626509 9.8632137,28.4458401 C9.73344209,26.6347471 9.74469821,24.7091354 9.88409462,23.0928222 C8.97316476,22.9929038 7.79200653,22.7502447 6.56166395,22.19323 C4.30986949,21.1739804 2.56647635,19.4464111 1.38017945,17.0585644 C0.00929853181,14.2993475 -0.299347471,11.1553018 0.486215334,7.96598695 C1.07373573,5.5819739 2.07324633,3.99168026 2.11557912,3.92512235 L4.60897227,0 L4.65073409,4.64926591 C4.6812398,8.20701468 5.92398042,10.7771615 8.34453507,12.2880098 C10.3074225,13.5132137 12.5784666,13.7801794 13.8301794,13.825367 L20.7849103,12.7818108 C22.1828711,12.5724307 23.6079119,12.4657423 25.021615,12.4657423 C26.4348287,12.4657423 27.8603589,12.5718597 29.2583197,12.7818108 L36.2192496,13.8264274 C37.4687602,13.7801794 39.7346656,13.5103589 41.6986949,12.2805873 C44.1153344,10.7669657 45.358646,8.19853181 45.3930669,4.64747145 L45.4383361,0.0072593801 L47.9266721,3.92455139 C47.9690049,3.9911093 48.9684339,5.58156607 49.5560359,7.96541599 C50.3415171,11.154894 50.0327896,14.2990212 48.6619902,17.0581566 Z M17.1335237,42.7498369 C17.333279,42.5461664 17.5336868,42.353752 17.7311582,42.182708 C17.6927406,41.0663132 17.5805057,38.7287113 17.2610114,36.237602 C17.0284666,34.426509 16.7254486,32.8497553 16.3693312,31.5668842 C15.9053834,31.8292822 15.3653344,31.9692496 14.7840131,31.9692496 C14.1891517,31.9692496 13.593801,31.8225122 13.0418434,31.5470636 C13.2991843,32.8028548 13.6440457,33.8643556 14.0593801,34.6573409 C15.6503263,37.69323 16.6819739,40.4095432 17.1335237,42.7498369 Z M14.7411093,28.1745514 L14.7422512,28.1734095 C14.7044046,28.1344209 14.6654976,28.0960848 14.6231648,28.0598695 C14.362969,27.8369494 14.0446982,27.703752 13.7726754,27.703752 C13.7235726,27.703752 13.5593801,27.7093801 13.4921697,27.7884176 C13.388907,27.908646 13.414845,28.4199021 13.9335237,28.8641109 C14.1942904,29.0869494 14.5119902,29.2202284 14.7840131,29.2202284 C14.8331158,29.2202284 14.9968189,29.2140294 15.0645188,29.1355628 C15.1147635,29.0767537 15.1277325,28.9566884 15.0995106,28.8127243 C15.0577488,28.5999184 14.9353181,28.3803426 14.7575041,28.1901305 C14.751876,28.1858891 14.746248,28.1795269 14.7411093,28.1745514 Z M37.0060359,31.517863 C36.4376835,31.8118271 35.8215334,31.9699021 35.2052202,31.9699021 C34.6238173,31.9699021 34.0844209,31.8298532 33.6198206,31.5674551 C33.2637031,32.8503263 32.9600326,34.426509 32.7281403,36.237602 C32.4087276,38.7287113 32.2957586,41.0663132 32.2579119,42.182708 C32.4712072,42.367863 32.6884992,42.5766721 32.9040783,42.7995106 C33.2749592,40.8547308 34.1366232,38.1784666 35.982137,34.6573409 C36.4017129,33.8577488 36.7482055,32.7860522 37.0060359,31.517863 Z M35.2486134,28.1751223 C35.2435563,28.1801794 35.2379282,28.1858075 35.2323002,28.1909462 C35.0544046,28.3811582 34.9319739,28.600571 34.8902936,28.8134584 C34.8620718,28.95677 34.8749592,29.0775693 34.9252855,29.1362969 C34.9929853,29.2147635 35.1572594,29.2209625 35.2057912,29.2209625 C35.478385,29.2209625 35.7960033,29.0877651 36.0562806,28.864845 C36.5749592,28.4207178 36.6008972,27.9093801 36.4976346,27.7891517 C36.4299347,27.7106852 36.2656607,27.7044861 36.2171289,27.7044861 C35.9445351,27.7044861 35.6269168,27.837602 35.3666395,28.0606036 C35.3243067,28.0967374 35.2853997,28.1350734 35.247553,28.1741436 L35.2486134,28.1751223 Z M47.1382545,9.93915171 C46.9908646,10.2884992 46.8267537,10.6254486 46.6471452,10.9493475 C45.8146819,12.45 44.6402936,13.6820555 43.1565253,14.6115008 C40.5767537,16.2273246 37.6760196,16.5376835 36.1758564,16.5788744 L36.0544861,16.5823002 L28.8498369,15.5015498 C27.5862153,15.3119086 26.2977977,15.2159869 25.0205546,15.2159869 C23.7428222,15.2159869 22.454894,15.3119086 21.1912724,15.5015498 L13.9944535,16.5811582 L13.8736542,16.5777325 C12.3712887,16.5376835 9.46647635,16.2300979 6.88792822,14.6204731 C5.40081566,13.6920881 4.22463295,12.4600326 3.39168026,10.9577488 C3.21223491,10.6343393 3.04910277,10.2979608 2.90179445,9.9497553 C2.62300163,12.0424144 2.93735726,14.0176998 3.8408646,15.8361338 C5.89176183,19.9645188 9.55399674,20.4103589 11.0331974,20.4103589 C11.1466558,20.4103589 11.2544046,20.408075 11.3531811,20.402447 L13.0676998,20.3076672 L12.7844209,22.0013051 C12.6388254,22.8704731 12.551876,23.9951876 12.5282219,25.1945351 C12.908646,25.0393148 13.3284666,24.9569331 13.7726754,24.9569331 C14.7084013,24.9569331 15.6452692,25.3181077 16.411093,25.9738989 C16.5092985,26.0579935 16.6029364,26.1465742 16.6927406,26.2380098 C18.2718597,27.7471452 19.3514682,30.9161501 19.9898042,35.91354 C20.4497553,39.5130506 20.4955139,42.6989396 20.4971452,42.832708 L20.5073409,43.6211256 L19.8318108,44.0274062 C17.5218597,45.4168842 15.2146819,49.4504078 16.6775693,52.0488581 C17.215416,53.004323 17.3694943,53.004323 17.65,53.004323 C17.9813214,53.004323 18.4716966,52.9252855 19.091925,52.8254486 C20.3402936,52.6239804 22.2264274,52.32031 25.0212072,52.32031 C27.8159869,52.32031 29.7021207,52.6244698 30.9504894,52.8254486 C31.5712072,52.925367 32.061093,53.004323 32.3929853,53.004323 C32.673491,53.004323 32.8275693,53.004323 33.365416,52.0488581 C34.8643556,49.3860522 32.4935563,45.4316476 30.1587276,44.0274062 C30.1581566,44.0274062 29.4826264,43.6211256 29.4826264,43.6211256 L29.4928222,42.832708 C29.4939641,42.6989396 29.5402121,39.5130506 29.9995922,35.91354 C30.6373573,30.9154976 31.7169657,27.7471452 33.2966558,26.2380098 C33.3863785,26.1465742 33.4800979,26.0579935 33.5783034,25.9738989 C34.3441272,25.3181077 35.2809951,24.9569331 36.216721,24.9569331 C36.6812398,24.9569331 37.119739,25.0460848 37.5141925,25.2159869 C37.4910277,24.0093801 37.4041599,22.877814 37.2579935,22.0035889 L36.9774878,20.3285481 L38.6739804,20.4041599 C38.7614192,20.408075 38.8539967,20.4097879 38.950571,20.4097879 C40.4473083,20.4097879 44.15,19.9639478 46.2009788,15.8367047 C47.1054649,14.0145188 47.4192496,12.0358891 47.1382545,9.93915171 Z M19.3966558,17.3618271 L19.9316476,20.0572594 C19.9830343,20.0470636 25.1498369,19.0504078 30.1044046,20.0561175 L30.6506525,17.362969 C25.141354,16.2449429 19.6285481,17.3161501 19.3966558,17.3618271 Z" id="Shape"></path>
        </g>
    </g>
</svg>
